<svg width="20" height="20" viewBox="0 0 20 20" fill="none" xmlns="http://www.w3.org/2000/svg">
<path d="M4.70996 14.3027H5.85156V15.3008C5.85156 16.8525 6.70605 17.7002 8.26465 17.7002H15.292C16.8506 17.7002 17.7051 16.8525 17.7051 15.3008V8.24609C17.7051 6.69434 16.8506 5.84668 15.292 5.84668H14.1504V4.8418C14.1504 3.29688 13.2959 2.44238 11.7373 2.44238H4.70996C3.15137 2.44238 2.29688 3.29004 2.29688 4.8418V11.9033C2.29688 13.4551 3.15137 14.3027 4.70996 14.3027ZM4.90137 12.5391C4.35449 12.5391 4.06055 12.2656 4.06055 11.6846V5.06055C4.06055 4.47949 4.35449 4.21289 4.90137 4.21289H11.5459C12.0928 4.21289 12.3867 4.47949 12.3867 5.06055V5.84668H8.26465C6.70605 5.84668 5.85156 6.69434 5.85156 8.24609V12.5391H4.90137ZM8.45605 15.9365C7.90918 15.9365 7.61523 15.6699 7.61523 15.0889V8.45801C7.61523 7.87695 7.90918 7.61035 8.45605 7.61035H15.1006C15.6475 7.61035 15.9414 7.87695 15.9414 8.45801V15.0889C15.9414 15.6699 15.6475 15.9365 15.1006 15.9365H8.45605Z" fill="#B1B0B9"/>
</svg>
