<svg width="583" height="143" viewBox="0 0 583 143" fill="none" xmlns="http://www.w3.org/2000/svg">
<g clipPath="url(#clip0_2239_15601)">
<rect width="583" height="143" rx="5" fill="#1E6DFC"/>
<g style="mix-blend-mode:exclusion" filter="url(#filter0_f_2239_15601)">
<path d="M232.125 -34.3107L747.07 0.365137C664.909 34.2916 542.596 91.4357 498.316 93.4865C442.965 96.0501 307.251 10.5342 108.225 30.3062C-50.9964 46.1238 -140.91 -21.2301 -169.999 -61.3894C-115.539 -61.2555 47.2974 -46.7569 232.125 -34.3107Z" fill="#FFD200"/>
</g>
<rect x="255" y="33" width="74" height="77.4074" rx="14.0741" fill="#ECF5FF"/>
<path d="M284.46 73.1371V74.9247C284.46 75.2421 284.631 75.5277 284.902 75.6652L297.626 82.0754C298.168 82.3504 298.51 82.9217 298.51 83.5563V86.423C298.51 87.0259 297.907 87.4279 297.395 87.1634L285.565 81.208C285.053 80.9436 284.45 81.3455 284.45 81.9485V83.8843C284.45 84.2016 284.621 84.4872 284.892 84.6247L297.616 91.0349C298.158 91.31 298.5 91.8812 298.5 92.5159V95.6787C298.5 96.2816 297.897 96.6836 297.385 96.4191L284.44 89.9031L277.601 86.4547L277.32 86.3066C277.049 86.1585 276.788 85.9787 276.557 85.7671C275.653 84.9738 275.06 83.7996 275 82.4774V62.9505C275.07 61.5648 275.803 60.3589 276.878 59.6925L277.44 59.4069C277.531 59.3751 277.611 59.3117 277.712 59.2588C277.26 59.6925 276.978 60.3801 276.978 61.0676C276.978 61.7869 277.25 62.4851 277.782 62.8659C278.103 63.0986 278.404 63.2255 278.766 63.363L282.211 65.0978L284.46 66.2297L297.636 72.862C298.178 73.1371 298.52 73.7083 298.52 74.3429V77.6221C298.52 78.225 297.917 78.627 297.405 78.3626L285.575 72.4072C285.053 72.1322 284.46 72.5341 284.46 73.1371Z" fill="#072D6B"/>
<path d="M277.902 86.5925C277.651 86.5291 277.129 86.2646 276.898 86.0848C276.757 85.979 276.607 85.8732 276.466 85.7463C275.753 85.1222 275.231 84.2654 275 83.2816V62.8027C275.11 61.4382 275.874 60.2746 276.948 59.6399L277.42 59.4072L277.661 59.2803C277.591 59.3226 277.521 59.3649 277.45 59.3966L276.888 59.6822C275.813 60.3486 275.08 61.5545 275.01 62.9402V82.4671C275.07 83.7894 275.663 84.9635 276.567 85.7569C276.798 85.9684 277.059 86.1483 277.33 86.2963L277.611 86.4444L277.902 86.5925Z" fill="#072D6B"/>
<path d="M277.714 59.248C277.704 59.2587 277.714 59.248 277.714 59.248L277.652 59.2802C277.673 59.2695 277.693 59.2587 277.714 59.248Z" fill="#3A7AF8"/>
<path d="M308 46.703V67.4676C308 67.5099 308 67.5522 307.99 67.5839C307.92 68.0705 307.659 68.5042 307.297 68.7792C307.257 68.811 307.227 68.8321 307.187 68.8533L306.775 69.0648L283.506 80.8698L278.676 83.3027C278.485 83.3979 278.314 83.472 278.133 83.5778C277.641 83.874 277.37 84.4875 277.37 85.1327C277.37 85.7568 277.661 86.3175 278.103 86.6665C278.033 86.6454 277.973 86.6242 277.902 86.6031C277.651 86.5396 277.129 86.2751 276.898 86.0953C276.757 85.9895 276.607 85.8838 276.466 85.7568C275.753 85.1327 275.231 84.2759 275 83.2922V62.8027C275.11 61.4381 275.874 60.2746 276.948 59.6399L277.42 59.4072L305.238 45.3068L305.64 45.1058C305.68 45.0846 305.72 45.074 305.76 45.0635C305.821 45.0423 305.891 45.0317 305.951 45.0212C306.042 45.0106 306.132 45 306.222 45C307.116 45 307.859 45.6876 307.99 46.5973C308 46.629 308 46.6607 308 46.703Z" fill="#3A7AF8"/>
<path d="M303.401 98.6091L300.358 97.4351C300.047 97.3187 299.846 97.012 299.846 96.6629V93.5638C299.846 92.9927 300.388 92.5907 300.9 92.7917L303.943 93.9658C304.254 94.0821 304.455 94.3889 304.455 94.7379V97.837C304.445 98.4082 303.903 98.7995 303.401 98.6091Z" fill="#1EFF59"/>
<path opacity="0.6" d="M306.767 69.0646L307.179 68.853C307.219 68.8318 307.259 68.8107 307.289 68.779C307.651 68.4933 307.912 68.0702 307.982 67.5836C307.992 67.5413 307.992 67.5096 307.992 67.4673V46.7028C307.992 46.6605 307.992 46.6287 307.982 46.5864C307.982 46.5758 307.982 46.5653 307.982 46.5547L282.645 59.4069L282.173 59.6396C281.098 60.2743 280.345 61.4484 280.225 62.8024V82.5091L283.498 80.859L306.767 69.0646Z" fill="#2C5CBA"/>
<path opacity="0.4" d="M307.006 68.7154L307.338 68.5461C307.368 68.525 307.398 68.5144 307.428 68.4933C307.719 68.2605 307.93 67.9221 307.99 67.5307C307.99 67.4989 308 67.4672 308 67.4355V50.6906C308 50.6588 308 50.6271 307.99 50.5954C307.99 50.5848 307.99 50.5848 307.99 50.5742L287.554 60.93L287.172 61.1204C286.308 61.6387 285.696 62.5802 285.605 63.6697V79.5578L288.247 78.225L307.006 68.7154Z" fill="#2C5CBA"/>
<path opacity="0.3" d="M307.219 68.6736L307.48 68.5467C307.51 68.5361 307.53 68.515 307.55 68.5044C307.781 68.3246 307.942 68.0601 307.992 67.7534C307.992 67.7322 308.002 67.7005 308.002 67.6793V54.605C308.002 54.5838 308.002 54.5521 307.992 54.5309C307.992 54.5203 307.992 54.5203 307.992 54.5098L291.833 62.5913L291.532 62.7394C290.849 63.1414 290.367 63.8712 290.297 64.7281V77.1254L292.386 76.0888L307.219 68.6736Z" fill="#2C5CBA"/>
<path d="M325.634 30.2075L323.841 33.7838C323.803 33.861 323.741 33.9235 323.664 33.9618L320.218 35.6303C320.152 35.6631 320.097 35.7136 320.059 35.7759C320.02 35.8383 320 35.9102 320 35.9835C320 36.0569 320.02 36.1287 320.059 36.1911C320.097 36.2535 320.152 36.3039 320.218 36.3367L323.708 38.0831C323.784 38.1218 323.844 38.1843 323.88 38.2611L325.623 41.7818C325.655 41.8473 325.706 41.9025 325.768 41.941C325.83 41.9796 325.902 42 325.975 42C326.048 42 326.12 41.9796 326.182 41.941C326.244 41.9025 326.295 41.8473 326.327 41.7818L328.081 38.25C328.119 38.1728 328.182 38.1103 328.259 38.072L331.782 36.3256C331.848 36.2928 331.903 36.2424 331.941 36.18C331.98 36.1176 332 36.0457 332 35.9724C332 35.8991 331.98 35.8272 331.941 35.7648C331.903 35.7024 331.848 35.652 331.782 35.6192L328.247 33.8839C328.172 33.8453 328.112 33.7827 328.075 33.7059L326.327 30.2075C326.294 30.1448 326.244 30.0924 326.183 30.0558C326.121 30.0193 326.052 30 325.981 30C325.909 30 325.84 30.0193 325.779 30.0558C325.718 30.0924 325.667 30.1448 325.634 30.2075Z" fill="url(#paint0_linear_2239_15601)"/>
<path d="M14.8385 117.485L13.646 120.466L5 125.236L10.6646 130.901H14.8385L15.7329 128.218H19.3106L20.205 124.044H24.0807L24.9752 119.87H28.5528L17.2236 141.336L22.5901 147H30.0435L37.1988 119.87H40.4783L39.882 123.746H43.4596L41.9689 124.044L38.6894 126.131L44.0559 131.497H49.7205L53 119.87L50.6149 116.292L48.8261 113.013L45.8447 115.994L46.441 112.714H41.9689L42.5652 108.541H39.882V105.261L32.7267 104.963L31.5342 109.137H27.9565L27.0621 113.013H23.4845L19.6087 112.714L18.118 116.59L14.8385 117.485Z" fill="#072D6B"/>
<path d="M8.8759 114.503L5.89453 124.938H10.0684L10.9629 122.255H14.5405L15.4349 118.081H19.3107L20.2051 113.907H23.7827L17.82 141.037H25.2734L32.4287 113.907H35.7082L35.1119 117.783H38.6896L37.7952 121.658H40.1802L39.2858 125.534H44.9504L48.2299 113.907L43.4598 114.205L44.3542 110.031H41.0747L41.6709 106.752H37.1989L37.7952 102.578H35.1119V99.2981L27.9566 99L26.7641 103.174H23.1865L22.292 107.05H18.7144L17.5219 110.627H13.3479L12.1554 114.503H8.8759Z" fill="#1EFF59" stroke="white" stroke-width="0.646022"/>
<path d="M585.304 30.3507L585.908 31.8588L590.281 34.2718L587.416 37.1372H585.304L584.852 35.7799H583.042L582.59 33.6685H580.629L580.177 31.5572H578.367L584.098 42.4155L581.383 45.281H577.613L573.994 31.5572H572.335L572.636 33.5177H570.827L571.581 33.6685L573.24 34.7242L570.525 37.4388H567.66L566.001 31.5572L567.207 29.7474L568.112 28.0885L569.62 29.5966L569.319 27.9377H571.581L571.279 25.8263H572.636V24.1674L576.256 24.0166L576.859 26.128H578.669L579.121 28.0885H580.931L582.892 27.9377L583.646 29.8982L585.304 30.3507Z" fill="#072D6B"/>
<path d="M588.32 28.8422L589.828 34.1206H587.717L587.264 32.7633H585.455L585.002 30.6519H583.042L582.589 28.5406H580.779L583.796 42.2644H580.025L576.406 28.5406H574.747L575.049 30.5011H573.239L573.691 32.4616H572.485L572.937 34.4222H570.072L568.413 28.5406L570.826 28.6914L570.374 26.58H572.032L571.731 24.9211H573.993L573.691 22.8097H575.049V21.1508L578.668 21L579.271 23.1114H581.081L581.534 25.0719H583.343L583.946 26.8816H586.058L586.661 28.8422H588.32Z" fill="#1EFF59" stroke="white" stroke-width="0.326787"/>
<path d="M452.406 83.8446C450.269 83.0998 450.032 80.2961 450.18 78.9873L494.705 90.5234L511.22 79.9992C506.538 77.4896 497.118 72.3085 496.891 71.6609C496.608 70.8513 496.486 68.3417 496.891 67.8965C497.296 67.4512 498.308 66.8036 499.765 67.0869C501.222 67.3703 504.339 67.7346 505.634 67.7346C506.93 67.7346 509.52 67.006 511.22 67.4108C512.92 67.8155 517.899 68.9084 522.23 69.3942C525.695 69.7827 528.18 71.445 528.99 72.2276C532.795 75.938 540.615 83.5855 541.457 84.4922C542.509 85.6256 543.319 87.0828 544.128 90.5234C544.776 93.2758 547.097 94.8814 548.176 95.3402L591.082 121.084L579.717 155.495L550.321 132.782C542.685 126.859 526.828 114.899 524.497 114.446C521.582 113.879 521.178 114.284 514.661 114.446C508.144 114.607 500.372 110.155 499.198 109.629L498.91 109.596C497.393 109.505 490.4 109.486 486.043 108.131C483.898 106.836 482.943 105.159 482.036 103.679H477.272C476.46 103.679 475.676 103.363 475.117 102.774C473.121 100.665 471.939 98.9052 470.945 97.7688C469.933 97.9577 470.411 97.9631 469.407 97.9307C468.152 97.8903 467.302 96.3117 463.942 92.5068C460.583 88.7019 455.078 84.7756 452.406 83.8446Z" fill="#072D6B"/>
<path d="M437.542 76.53C437.041 76.3384 436.726 76.0166 436.726 75.6962L436.726 72.5577C436.726 72.2463 437.024 71.9863 437.503 71.879L465.746 65.5583C466.121 65.4742 466.568 65.4934 466.972 65.611L527.626 83.2372C527.917 83.3219 528.111 83.4971 528.106 83.6725L528.004 87.3312C527.998 87.5709 527.813 87.782 527.497 87.9127L501.386 98.6919C499.67 99.4012 497.2 99.3536 495.163 98.5744L437.542 76.53Z" fill="#F4F4F4" stroke="#072D6B" stroke-width="0.10669"/>
<path d="M437.7 73.237C436.667 72.8576 436.508 72.0432 437.403 71.7135L465.568 61.3365C466.035 61.1644 466.676 61.1782 467.219 61.3719L527.195 82.7655C528.231 83.1351 528.415 83.9456 527.54 84.2865L501.349 94.4921C499.648 95.155 497.261 95.1087 495.261 94.3742L437.7 73.237Z" fill="#1EFF59"/>
<path d="M469.162 69.48L472.52 68.1885L477.428 69.7383" stroke="white" stroke-opacity="0.3" stroke-width="0.285509"/>
<path d="M500.372 110.276C495.677 109.534 487.695 108.706 485.881 108.091C483.615 107.322 480.7 101.614 480.336 99.6714C480.215 98.3356 480.579 95.4374 481.065 93.3974C481.672 90.8473 482.238 89.7139 482.765 89.5115C483.291 89.3091 486.893 89.552 488.027 92.1021C489.16 94.6522 488.512 98.3761 488.27 99.0237C488.075 99.5418 487.271 100.454 486.893 100.845" stroke="white" stroke-width="0.160035"/>
<path d="M481.151 93.4178C480.676 95.419 480.32 98.2618 480.439 99.5721L486.851 100.724C487.22 100.34 488.006 99.445 488.196 98.9368C488.434 98.3015 489.067 94.6487 487.959 92.1473C486.851 89.6459 483.328 89.4076 482.814 89.6062C482.299 89.8047 481.745 90.9164 481.151 93.4178Z" fill="#072D6B"/>
<path d="M465.173 83.708L465.173 83.708L465.172 83.7062C464.882 83.4234 464.344 83.0154 463.666 82.7022C462.987 82.3889 462.163 82.1679 461.302 82.2673C460.231 82.3908 459.247 82.8942 458.537 83.4103C458.181 83.6686 457.892 83.9317 457.694 84.1549C457.594 84.2663 457.516 84.3694 457.464 84.4583C457.438 84.5027 457.417 84.5452 457.403 84.5846C457.39 84.6231 457.382 84.664 457.386 84.7033C457.389 84.7295 457.402 84.7566 457.413 84.7758C457.425 84.7987 457.442 84.8262 457.462 84.8572C457.503 84.9196 457.562 85.0015 457.635 85.1002C457.783 85.2979 457.995 85.5668 458.256 85.8897C458.777 86.5356 459.494 87.3998 460.29 88.3464C461.881 90.2386 463.784 92.4615 465.053 93.9324C465.52 94.5827 466.309 95.5701 467.161 96.4246C467.587 96.8525 468.031 97.2485 468.459 97.5523C468.885 97.8551 469.303 98.0714 469.677 98.131C470.403 98.2465 471.19 98.1603 471.876 98.0076C472.562 97.8549 473.152 97.6344 473.488 97.4768L473.556 97.445L473.529 97.3752L470.25 88.9964L470.244 88.9815L470.233 88.9701L465.173 83.708Z" fill="#072D6B" stroke="white" stroke-width="0.160035"/>
<path d="M482.159 103.678H477.566C476.543 103.678 475.561 103.268 474.866 102.517C472.877 100.371 470.149 97.183 469.772 95.7848C469.321 94.1097 468.406 89.7358 468.461 87.7396C468.481 87.0486 469.057 86.6398 469.741 86.5393C474.516 85.8374 476.573 90.2706 476.573 92.7085C476.573 94.198 476.573 95.1641 476.573 95.4609" stroke="white" stroke-width="0.160035"/>
<path d="M468.599 87.9016C468.557 89.8419 469.435 94.0183 469.869 95.6237L470.014 96.1499L470.419 96.8785L470.905 97.5666L471.876 99.0238L476.45 95.3115V92.6576C476.45 90.3124 474.469 86.0521 469.87 86.7049C469.187 86.8018 468.614 87.2121 468.599 87.9016Z" fill="#072D6B"/>
<path d="M460.638 73.0957L454.955 75.1621L461.413 77.4869" stroke="white" stroke-width="0.285509"/>
<path d="M534.595 69.4263L535.813 64.0557L537.175 69.4263L540.972 71.4314L537.175 73.3648L535.813 78.5207L534.595 73.3648L531.156 71.6462L534.595 69.4263Z" fill="#1EFF59" stroke="white" stroke-width="0.55971"/>
<path d="M481.019 82.9861L458.178 74.9918L382.5 39.5H559.5L496.027 77.4873L481.019 82.9861Z" fill="url(#paint1_linear_2239_15601)"/>
<path d="M493.701 75.1621L499.642 77.2285L494.993 79.295" stroke="white" stroke-width="0.285509"/>
<path d="M475.621 82.3955L481.045 84.2036L485.953 82.3955" stroke="white" stroke-width="0.285509"/>
<path d="M490.47 85.33L492.456 84.2803L493.017 84.5356L491.665 85.2503L492.348 85.561L493.447 84.9803L493.982 85.2237L492.883 85.8044L493.588 86.1249L494.986 85.3857L495.548 85.641L493.515 86.7152L490.47 85.33Z" fill="black"/>
<path d="M492.598 84.2056L493.269 83.8505L496.232 84.5004L494.706 83.0912L495.361 82.745L497.404 84.6595L496.648 85.0593L492.598 84.2056Z" fill="black"/>
<path d="M495.615 82.6103L497.601 81.5607L498.162 81.816L496.81 82.5306L497.493 82.8413L498.592 82.2607L499.127 82.5041L498.028 83.0847L498.733 83.4053L500.132 82.6661L500.693 82.9214L498.66 83.9956L495.615 82.6103Z" fill="black"/>
<path d="M501.074 82.7197L498.029 81.3345L498.604 81.0308L501.777 81.2402L499.859 80.3675L500.484 80.037L503.529 81.4222L502.95 81.7282L499.777 81.5187L501.695 82.3914L501.074 82.7197Z" fill="black"/>
<path d="M500.827 79.8556L503.168 78.6184L503.729 78.8737L502.875 79.3248L505.359 80.4548L504.725 80.7897L502.242 79.6598L501.388 80.1109L500.827 79.8556Z" fill="black"/>
<path d="M496.591 89.9926L494.628 88.0356L495.388 87.6336L499.506 88.4516L498.826 88.8112L497.932 88.629L496.808 89.2231L497.246 89.6464L496.591 89.9926ZM496.451 88.8943L497.233 88.4811L495.683 88.1624L496.451 88.8943Z" fill="black"/>
<path d="M497.369 87.2841C497.252 87.1147 497.239 86.9464 497.328 86.7709C497.421 86.5974 497.614 86.4315 497.91 86.2752C498.138 86.1546 498.393 86.0669 498.67 86.0102C498.947 85.9577 499.226 85.9389 499.505 85.9538C499.784 85.9729 500.048 86.0262 500.291 86.1118L499.657 86.4468C499.445 86.3877 499.234 86.3666 499.016 86.3836C498.797 86.4016 498.601 86.4528 498.428 86.5444C498.192 86.6694 498.093 86.8115 498.14 86.9661C498.184 87.1229 498.36 87.2694 498.655 87.404C498.951 87.5386 499.262 87.6136 499.585 87.6231C499.902 87.6347 500.184 87.5758 500.42 87.4507C500.594 87.3591 500.69 87.2614 500.708 87.1534C500.726 87.0453 500.663 86.9418 500.527 86.8426L501.161 86.5076C501.357 86.6219 501.485 86.7467 501.541 86.8799C501.596 87.0174 501.579 87.155 501.489 87.2925C501.398 87.4343 501.235 87.5636 501.007 87.6842C500.711 87.8405 500.392 87.949 500.042 88.0058C499.696 88.0645 499.353 88.0705 499 88.0262C498.647 87.9818 498.322 87.8882 498.009 87.7457C497.7 87.6052 497.485 87.4535 497.369 87.2841Z" fill="black"/>
<path d="M500.306 85.7312C500.19 85.5618 500.176 85.3936 500.265 85.2181C500.359 85.0446 500.552 84.8787 500.847 84.7224C501.075 84.6018 501.33 84.5141 501.608 84.4574C501.885 84.4049 502.163 84.3861 502.443 84.401C502.722 84.4201 502.986 84.4734 503.228 84.559L502.595 84.894C502.383 84.8349 502.172 84.8138 501.953 84.8308C501.735 84.8478 501.539 84.9 501.366 84.9915C501.129 85.1166 501.031 85.2587 501.078 85.4132C501.121 85.57 501.297 85.7166 501.593 85.8512C501.889 85.9857 502.2 86.0608 502.522 86.0702C502.84 86.0819 503.122 86.0229 503.358 85.8979C503.531 85.8063 503.627 85.7086 503.646 85.6006C503.664 85.4925 503.601 85.389 503.465 85.2897L504.098 84.9547C504.295 85.0691 504.423 85.1939 504.478 85.3271C504.534 85.4646 504.517 85.6021 504.426 85.7397C504.336 85.8815 504.173 86.0107 503.944 86.1313C503.649 86.2877 503.33 86.3962 502.98 86.453C502.634 86.5117 502.291 86.5177 501.938 86.4733C501.585 86.429 501.26 86.3353 500.947 86.1929C500.638 86.0524 500.423 85.9006 500.306 85.7312Z" fill="black"/>
<path d="M502.509 83.8696L504.495 82.82L505.056 83.0753L503.704 83.7899L504.387 84.1006L505.485 83.5199L506.021 83.7633L504.922 84.344L505.627 84.6646L507.025 83.9254L507.586 84.1806L505.554 85.2549L502.509 83.8696Z" fill="black"/>
<path d="M507.479 83.2621C507.64 83.3268 507.82 83.351 508.022 83.3345C508.223 83.318 508.41 83.2618 508.592 83.1658C508.74 83.0876 508.832 83.009 508.859 82.9302C508.887 82.8514 508.846 82.783 508.729 82.7296C508.651 82.694 508.556 82.6799 508.457 82.685C508.359 82.69 508.244 82.7124 508.124 82.7496C508.005 82.7869 507.823 82.8492 507.585 82.9322C507.356 83.0191 507.143 83.0844 506.951 83.1259C506.755 83.1697 506.562 83.1859 506.361 83.1772C506.159 83.1684 505.964 83.1173 505.768 83.0282C505.594 82.9491 505.48 82.8513 505.433 82.7388C505.387 82.6264 505.409 82.5077 505.5 82.3827C505.591 82.2578 505.738 82.1375 505.949 82.0258C506.164 81.9119 506.402 81.829 506.658 81.775C506.914 81.721 507.162 81.701 507.407 81.7127C507.656 81.7264 507.868 81.7728 508.055 81.8537L507.434 82.182C507.286 82.1316 507.131 82.1109 506.96 82.1244C506.789 82.1379 506.623 82.1829 506.471 82.2633C506.327 82.3392 506.248 82.4111 506.224 82.4835C506.201 82.5559 506.245 82.6178 506.358 82.6692C506.441 82.7068 506.532 82.7231 506.626 82.7161C506.72 82.7091 506.831 82.6889 506.95 82.6517C507.069 82.6144 507.248 82.5543 507.477 82.4674C507.71 82.3825 507.927 82.3149 508.119 82.2692C508.311 82.2235 508.503 82.2072 508.701 82.214C508.898 82.2208 509.093 82.2677 509.284 82.3548C509.471 82.4399 509.586 82.5419 509.637 82.6605C509.683 82.7814 509.661 82.9043 509.566 83.0357C509.476 83.1691 509.321 83.2896 509.101 83.4058C508.864 83.5308 508.61 83.6227 508.337 83.6814C508.064 83.7401 507.794 83.7586 507.536 83.741C507.274 83.7256 507.045 83.6754 506.849 83.5864L507.479 83.2621Z" fill="black"/>
<path d="M510.086 81.8837C510.247 81.9485 510.428 81.9726 510.629 81.9561C510.83 81.9396 511.018 81.8835 511.199 81.7874C511.347 81.7093 511.439 81.6307 511.467 81.5518C511.495 81.473 511.454 81.4047 511.337 81.3512C511.258 81.3156 511.163 81.3016 511.065 81.3066C510.966 81.3116 510.851 81.334 510.732 81.3713C510.613 81.4085 510.43 81.4709 510.193 81.5538C509.963 81.6407 509.751 81.706 509.559 81.7476C509.363 81.7913 509.17 81.8076 508.968 81.7988C508.766 81.7901 508.572 81.7389 508.376 81.6499C508.202 81.5707 508.087 81.4729 508.041 81.3605C507.995 81.248 508.017 81.1293 508.108 81.0044C508.199 80.8794 508.345 80.7591 508.556 80.6475C508.772 80.5336 509.01 80.4506 509.266 80.3966C509.521 80.3427 509.77 80.3227 510.015 80.3344C510.264 80.3481 510.476 80.3945 510.663 80.4754L510.042 80.8037C509.894 80.7532 509.739 80.7325 509.568 80.746C509.397 80.7595 509.231 80.8045 509.078 80.8849C508.935 80.9609 508.855 81.0328 508.832 81.1051C508.808 81.1775 508.853 81.2394 508.966 81.2909C509.049 81.3285 509.139 81.3448 509.233 81.3377C509.328 81.3307 509.439 81.3106 509.558 81.2733C509.677 81.2361 509.855 81.176 510.084 81.0891C510.318 81.0041 510.535 80.9366 510.726 80.8908C510.918 80.8451 511.111 80.8288 511.308 80.8356C511.506 80.8424 511.701 80.8893 511.892 80.9764C512.079 81.0615 512.194 81.1635 512.244 81.2822C512.291 81.403 512.269 81.526 512.174 81.6574C512.083 81.7907 511.928 81.9113 511.709 82.0274C511.472 82.1525 511.217 82.2443 510.944 82.303C510.671 82.3617 510.402 82.3803 510.144 82.3626C509.881 82.3472 509.652 82.2971 509.457 82.208L510.086 81.8837Z" fill="black"/>
<path d="M499.602 90.3095L501.942 89.0723L502.504 89.3275L501.65 89.7787L504.134 90.9086L503.5 91.2436L501.016 90.1137L500.163 90.5648L499.602 90.3095Z" fill="black"/>
<path d="M502.287 88.8899L502.921 88.5549L505.966 89.9402L505.332 90.2751L502.287 88.8899Z" fill="black"/>
<path d="M504.186 88.5837C504.069 88.4143 504.056 88.2461 504.145 88.0706C504.239 87.897 504.431 87.7311 504.727 87.5748C504.955 87.4542 505.21 87.3665 505.487 87.3098C505.765 87.2573 506.043 87.2385 506.322 87.2534C506.602 87.2725 506.865 87.3259 507.108 87.4114L506.474 87.7464C506.262 87.6873 506.051 87.6662 505.833 87.6832C505.615 87.7002 505.419 87.7524 505.246 87.844C505.009 87.969 504.91 88.1111 504.958 88.2657C505.001 88.4225 505.177 88.569 505.473 88.7036C505.769 88.8382 506.08 88.9133 506.402 88.9227C506.72 88.9343 507.001 88.8754 507.238 88.7503C507.411 88.6588 507.507 88.5611 507.525 88.453C507.543 88.345 507.48 88.2414 507.344 88.1422L507.978 87.8072C508.174 87.9215 508.303 88.0463 508.358 88.1796C508.414 88.317 508.396 88.4546 508.306 88.5922C508.216 88.734 508.052 88.8632 507.824 88.9838C507.528 89.1401 507.21 89.2486 506.859 89.3054C506.514 89.3641 506.171 89.3701 505.817 89.3258C505.464 89.2814 505.139 89.1878 504.826 89.0453C504.517 88.9048 504.303 88.7531 504.186 88.5837Z" fill="black"/>
<path d="M506.393 86.724L507.027 86.389L508.393 87.0104L508.21 85.7637L508.979 85.3573L509.146 86.5011L512.091 86.7026L511.331 87.1046L509.202 86.9674L509.267 87.4082L510.067 87.7723L509.434 88.1073L506.393 86.724Z" fill="black"/>
<path d="M509.273 85.1976L511.259 84.1479L511.82 84.4032L510.468 85.1179L511.151 85.4286L512.249 84.8479L512.784 85.0913L511.686 85.672L512.39 85.9925L513.789 85.2533L514.35 85.5086L512.318 86.5828L509.273 85.1976Z" fill="black"/>
<path d="M511.476 84.0328L513.817 82.7955L514.378 83.0508L513.525 83.5019L516.009 84.6319L515.375 84.9669L512.891 83.8369L512.038 84.288L511.476 84.0328Z" fill="black"/>
<path d="M406.292 29.2615L386.154 17.2806L381 -15L391.706 -14.2353L419.803 3.67077V35.7897L414.959 33.4955V45.4204L408.049 42.6102L406.292 29.2615Z" fill="#072D6B"/>
<path d="M401.648 30.1194L381.51 18.1385V-14.2354L413.119 4.37325V36.4922L408.276 34.198V42.6101L401.648 30.1194Z" fill="#1EFF59" stroke="white" stroke-width="0.552361"/>
<path d="M228.058 122.252L230.912 110L234.102 122.252L243 126.827L234.102 131.238L230.912 143L228.058 131.238L220 127.317L228.058 122.252Z" fill="#1EFF59" stroke="white" stroke-width="1.9604"/>
<path d="M119.72 78.8003C121.669 79.7081 123.687 77.9555 124.452 76.9657L86.4849 55.3419L82.204 37.2381C87.0548 38.6287 96.9023 41.3372 97.4856 41.0461C98.2146 40.6823 99.959 39.0532 99.9781 38.4819C99.9972 37.9106 99.7367 36.7994 98.5565 36.0276C97.3763 35.2557 95.0121 33.4401 94.1298 32.5825C93.2475 31.7248 91.9653 29.5132 90.5393 28.6633C89.1132 27.8133 84.9982 25.2612 81.7264 22.7242C79.109 20.6947 76.3154 20.1814 75.2458 20.1784C70.1972 20.1865 59.8066 20.2176 58.6327 20.2778C57.1654 20.353 55.6491 20.8095 52.8195 22.6171C50.5559 24.0632 47.9119 23.6202 46.8729 23.218L0.600832 12.344L0.438073 45.0042L20.6201 47.3015C29.744 48.3234 48.4638 50.6759 50.3521 51.9109C52.7125 53.4546 52.7202 53.9984 57.0521 58.4237C61.384 62.8491 69.626 64.9621 70.774 65.3809L70.9919 65.5493C72.0858 66.4923 76.8619 71.1092 80.7265 73.0713C83.0455 73.6095 84.8057 73.0995 86.4043 72.6917L87.2279 73.4923C89.3331 75.5387 92.1672 76.7325 95.0795 76.361C96.1897 76.2194 97.108 76.0717 97.8721 76.0099C98.4363 76.8086 98.1074 76.496 98.8126 77.1386C99.6941 77.9419 101.318 77.4294 106.126 77.0622C110.934 76.695 117.284 77.6655 119.72 78.8003Z" fill="#072D6B"/>
<path d="M132.455 82.588C134.237 83.3535 135.864 83.3126 136.671 82.4822L136.759 82.3918C137.544 81.5844 137.427 80.1599 136.455 78.6732L123.548 58.9475C122.78 57.7729 121.56 56.6899 120.202 55.9754L69.5012 29.2994C68.4391 28.7406 67.4282 28.7677 67.0734 29.3645L66.4233 30.4581C66.0439 31.0963 66.0668 31.9836 66.4876 32.957L73.3717 48.881C76.035 55.0417 82.5585 61.1479 89.8024 64.2605L132.455 82.588Z" fill="#DCDCDC" stroke="#072D6B" stroke-width="0.385746"/>
<path d="M131.622 78.9829C135.304 80.6212 137.764 78.8397 136.179 75.6826L126.618 56.6343C125.823 55.0505 124.167 53.5246 122.321 52.674L74.7137 30.7398C71.0553 29.0543 68.5151 30.7312 69.987 33.8602L75.9256 46.4854C78.722 52.4303 84.9748 58.2268 91.9294 61.3213L131.622 78.9829Z" fill="white"/>
<rect x="-0.377026" y="0.158907" width="4.64358" height="0.933068" rx="0.466534" transform="matrix(-0.926227 -0.376966 -0.376966 0.926227 127.754 78.0639)" stroke="#A7A7A7" stroke-width="0.57862"/>
<path d="M69.5459 65.0443C73.2357 67.6478 79.2214 72.3688 80.864 73.1504C82.9173 74.1275 88.6815 72.1695 90.2161 71.0873C91.1833 70.2578 92.8541 68.0425 93.8741 66.3312C95.149 64.1922 95.5134 63.0449 95.289 62.5586C95.0646 62.0724 92.4499 59.8524 89.9894 60.839C87.5288 61.8256 85.5042 64.7911 85.2408 65.393C85.0301 65.8746 84.974 67.0283 84.9722 67.545" stroke="white" stroke-width="0.57862"/>
<path d="M93.8005 66.2871C92.799 67.9647 91.1592 70.137 90.2108 70.9509L85.081 67.4898C85.0835 66.9838 85.1403 65.8537 85.3474 65.3817C85.6063 64.7918 87.5936 61.8843 90.0048 60.9142C92.4159 59.9441 94.973 62.1142 95.1921 62.5901C95.4111 63.066 95.0524 64.1902 93.8005 66.2871Z" fill="#072D6B"/>
<path d="M111.106 70.04L111.106 70.0398L111.115 70.0398C111.524 70.039 112.185 70.1211 112.877 70.3651C113.571 70.6093 114.317 71.0231 114.87 71.7005C115.548 72.5306 115.895 73.5636 116.042 74.4085C116.115 74.8324 116.139 75.2185 116.126 75.5197C116.119 75.6695 116.103 75.8061 116.076 75.9193C116.062 75.9759 116.044 76.0331 116.019 76.0858C115.996 76.1353 115.958 76.2002 115.895 76.2521C115.841 76.296 115.779 76.3157 115.759 76.322C115.759 76.3222 115.758 76.3224 115.758 76.3225C115.726 76.3328 115.689 76.3419 115.652 76.3502C115.576 76.367 115.477 76.3848 115.36 76.4034C115.124 76.4407 114.799 76.484 114.407 76.5316C113.622 76.6268 112.559 76.7403 111.39 76.8582C109.056 77.0935 106.292 77.3471 104.454 77.5092C103.696 77.6436 102.498 77.7942 101.343 77.8126C100.762 77.8219 100.185 77.7979 99.6763 77.7191C99.1742 77.6413 98.7075 77.5056 98.3729 77.27C97.7714 76.8465 97.2752 76.2426 96.9015 75.6728C96.5267 75.1015 96.2634 74.5464 96.1334 74.2018L96.0378 73.9484L96.2844 73.8363L104.066 70.2999L104.118 70.2761L104.176 70.2741L111.106 70.04Z" fill="#072D6B" stroke="white" stroke-width="0.57862"/>
<path d="M86.3217 72.611L86.3911 72.6784C89.0436 75.2569 92.6387 76.7474 96.3098 76.2914C97.9257 76.0907 99.3533 75.8115 99.985 75.4358C100.88 74.9034 102.615 73.7595 104.096 72.6372C106.087 71.127 106.276 68.4403 103.996 67.4168C101.478 66.2868 98.6303 67.5615 97.3899 68.8376C96.4036 69.8523 95.7639 70.5103 95.5674 70.7125" stroke="white" stroke-width="0.57862"/>
<path d="M103.892 72.6404C102.487 73.6973 100.87 74.76 100.026 75.2607L99.5784 75.5228L98.8202 75.7511L98.0337 75.8982L96.4072 76.2475L95.7496 70.6902L97.5068 68.8825C98.6858 67.6696 101.374 66.4608 103.782 67.4768C106.079 68.4461 105.884 71.1418 103.892 72.6404Z" fill="#072D6B"/>
<rect x="-0.377026" y="0.158907" width="4.64358" height="0.933068" rx="0.466534" transform="matrix(-0.926227 -0.376966 -0.376966 0.926227 122.336 75.8383)" stroke="#A7A7A7" stroke-width="0.57862"/>
<path d="M89.0342 40.0238L89.8569 41.8329L89.4158 41.6931L89.1158 41.0334L87.1631 40.4145L86.9404 39.9247L88.893 40.5436L88.593 39.8839L89.0342 40.0238Z" fill="#072D6B"/>
<path d="M89.9782 42.0995L90.2009 42.5894L87.8071 41.8306L87.5844 41.3408L89.9782 42.0995Z" fill="#072D6B"/>
<path d="M89.8389 42.8423C90.0651 42.9923 90.2632 43.164 90.4431 43.3664C90.6195 43.5676 90.7613 43.7831 90.8653 44.0117C90.9455 44.188 90.9806 44.3361 90.9742 44.457C90.9628 44.5736 90.9122 44.6554 90.8223 44.7023C90.7276 44.745 90.5974 44.7484 90.4354 44.7138L90.2126 44.224C90.336 44.238 90.4153 44.2128 90.4524 44.1463C90.4895 44.0798 90.48 43.9818 90.4191 43.8479C90.3359 43.665 90.1973 43.4953 90.0062 43.3453C89.8135 43.192 89.5983 43.079 89.3657 43.0053C89.1332 42.9316 88.9654 42.9232 88.8708 42.9854C88.7747 43.0444 88.7697 43.1686 88.8529 43.3514C88.9138 43.4853 89.0019 43.6083 89.1221 43.7246C89.2424 43.841 89.3785 43.9345 89.5287 44.0072L89.7514 44.4971C89.5681 44.4222 89.3905 44.3212 89.2219 44.1951C89.0484 44.0646 88.8939 43.9178 88.7582 43.7546C88.6176 43.5871 88.5107 43.4162 88.4305 43.2399C88.3265 43.0113 88.2838 42.8273 88.3092 42.69C88.3311 42.5516 88.4134 42.4687 88.5565 42.4358C88.6996 42.4029 88.8923 42.4277 89.1385 42.5057C89.3813 42.5827 89.6126 42.6923 89.8389 42.8423Z" fill="#072D6B"/>
<path d="M91.4163 45.2683L91.6391 45.7582L90.5653 45.4178L92.0549 46.6725L92.3252 47.2668L90.9586 46.1154L89.96 46.5647L89.6927 45.9769L90.4045 45.6435L89.8779 45.1999L89.2487 45.0005L89.0259 44.5107L91.4163 45.2683Z" fill="#072D6B"/>
<path d="M92.4334 47.4985L93.1314 49.0333L92.6903 48.8935L92.2151 47.8485L91.6782 47.6784L92.0643 48.5274L91.6437 48.3941L91.2575 47.545L90.7036 47.3694L91.1951 48.4503L90.754 48.3105L90.0397 46.7398L92.4334 47.4985Z" fill="#072D6B"/>
<path d="M93.208 49.2017L94.0307 51.0109L93.5896 50.871L93.2896 50.2114L91.337 49.5925L91.1142 49.1026L93.0668 49.7216L92.7669 49.0619L93.208 49.2017Z" fill="#072D6B"/>
<path d="M93.083 51.9645C92.9663 51.9331 92.8913 51.9485 92.8581 52.0106C92.8249 52.0727 92.8412 52.1729 92.9051 52.3133C92.957 52.4276 93.024 52.5299 93.108 52.618C93.192 52.7061 93.2816 52.7681 93.3739 52.7973C93.4355 52.8169 93.4764 52.8103 93.4962 52.783C93.516 52.7557 93.52 52.7067 93.5079 52.6414C93.4957 52.576 93.4711 52.4704 93.437 52.331C93.396 52.1895 93.3757 52.0741 93.3776 51.988C93.3779 51.8987 93.4092 51.8387 93.4718 51.8027C93.5345 51.7666 93.6442 51.7763 93.7981 51.825C93.9349 51.8684 94.0777 51.9444 94.2198 52.0509C94.3619 52.1575 94.4935 52.2858 94.6144 52.4359C94.7354 52.5861 94.8364 52.7439 94.9107 52.9071C94.9864 53.0737 95.0205 53.2131 95.0164 53.3264C95.0123 53.4396 94.971 53.516 94.8937 53.5586C94.8131 53.6001 94.7044 53.5992 94.5623 53.5569L94.344 53.0769C94.4406 53.0963 94.5049 53.0831 94.5337 53.0308C94.5626 52.9785 94.5538 52.8946 94.5003 52.7771C94.4498 52.666 94.3873 52.5735 94.3097 52.4931C94.2321 52.4126 94.1489 52.3582 94.0599 52.3301C93.995 52.3095 93.9526 52.3128 93.9362 52.3411C93.9198 52.3695 93.9143 52.4153 93.9265 52.4806C93.9386 52.5459 93.9617 52.6483 94.0027 52.7898C94.0402 52.9303 94.062 53.049 94.0651 53.1394C94.0682 53.2298 94.0369 53.2898 93.9777 53.3269C93.9185 53.364 93.8136 53.3587 93.6632 53.311C93.5161 53.2644 93.3683 53.1841 93.2179 53.0721C93.066 52.9569 92.9296 52.8242 92.8022 52.6664C92.6715 52.5076 92.5724 52.3476 92.4951 52.1778C92.412 51.995 92.3719 51.8425 92.375 51.7205C92.378 51.5985 92.4267 51.5189 92.5142 51.4796C92.6002 51.4369 92.7176 51.4379 92.8715 51.4866L93.083 51.9645Z" fill="#072D6B"/>
<path d="M92.9339 53.1039L95.7078 54.6987L95.9751 55.2865L93.9586 55.3572L93.7195 54.8314L94.1625 54.8209L93.7675 53.9523L93.1641 53.6101L92.9339 53.1039ZM94.2406 54.2141L94.5154 54.8182L95.2869 54.8028L94.2406 54.2141Z" fill="#072D6B"/>
<path d="M94.054 55.567L96.4478 56.3257L96.6705 56.8155L94.7179 56.1966L95.1307 57.1044L94.6896 56.9646L94.054 55.567Z" fill="#072D6B"/>
<path d="M97.2033 57.9872L97.9013 59.522L97.4602 59.3822L96.985 58.3372L96.4481 58.167L96.8342 59.0161L96.4136 58.8827L96.0274 58.0337L95.4735 57.8581L95.965 58.939L95.5239 58.7992L94.8096 57.2284L97.2033 57.9872Z" fill="#072D6B"/>
<path d="M85.0227 39.6276C85.249 39.7776 85.4471 39.9494 85.6269 40.1517C85.8033 40.353 85.9452 40.5684 86.0491 40.797C86.1293 40.9733 86.1645 41.1214 86.158 41.2424C86.1466 41.3589 86.096 41.4407 86.0062 41.4877C85.9114 41.5303 85.7813 41.5338 85.6192 41.4992L85.3965 41.0094C85.5199 41.0233 85.5992 40.9981 85.6362 40.9316C85.6733 40.8651 85.6638 40.7671 85.603 40.6332C85.5198 40.4504 85.3811 40.2806 85.19 40.1306C84.9974 39.9773 84.7821 39.8644 84.5496 39.7907C84.317 39.717 84.1493 39.7085 84.0547 39.7708C83.9586 39.8297 83.9536 39.9539 84.0367 40.1368C84.0976 40.2707 84.1857 40.3936 84.306 40.51C84.4262 40.6264 84.5624 40.7198 84.7125 40.7926L84.9353 41.2824C84.752 41.2075 84.5743 41.1065 84.4058 40.9804C84.2323 40.85 84.0777 40.7031 83.942 40.54C83.8015 40.3724 83.6945 40.2016 83.6143 40.0252C83.5104 39.7967 83.4676 39.6126 83.493 39.4753C83.515 39.337 83.5973 39.2541 83.7403 39.2212C83.8834 39.1882 84.0761 39.213 84.3223 39.291C84.5651 39.368 84.7965 39.4777 85.0227 39.6276Z" fill="#072D6B"/>
<path d="M85.6944 43.4859C85.4652 43.3294 85.2573 43.1489 85.0775 42.9465C84.8927 42.7399 84.7523 42.5277 84.6528 42.3089C84.5519 42.0868 84.514 41.9072 84.5428 41.7709C84.5667 41.6304 84.6529 41.5431 84.7945 41.5069C84.9346 41.4675 85.1224 41.4879 85.3549 41.5616C85.584 41.6342 85.8134 41.7461 86.0427 41.9026C86.2704 42.0558 86.4783 42.2363 86.663 42.443C86.8429 42.6453 86.9867 42.8586 87.0877 43.0806C87.1872 43.2994 87.2215 43.478 87.1977 43.6186C87.1689 43.7548 87.0827 43.8421 86.9426 43.8815C86.801 43.9177 86.6147 43.9005 86.3856 43.8279C86.153 43.7542 85.9221 43.6391 85.6944 43.4859ZM85.2143 42.0117C85.1183 42.026 85.0587 42.0686 85.0348 42.1449C85.0095 42.2179 85.0292 42.3192 85.0871 42.4465C85.1436 42.5706 85.2234 42.6882 85.3363 42.8078C85.4478 42.9242 85.5742 43.0286 85.7177 43.1187C85.8577 43.2078 86.0064 43.2773 86.1569 43.325C86.3073 43.3727 86.4288 43.3889 86.5247 43.3745C86.6173 43.3592 86.6754 43.3133 86.7008 43.2403C86.7246 43.164 86.7098 43.0671 86.6534 42.943C86.5954 42.8156 86.5107 42.6938 86.3993 42.5774C86.2863 42.4577 86.1613 42.3566 86.0213 42.2675C85.8779 42.1773 85.7326 42.1089 85.5821 42.0612C85.4317 42.0136 85.3068 41.9963 85.2143 42.0117Z" fill="#072D6B"/>
<path d="M85.3236 43.7452L87.7174 44.5039L87.9193 44.948L86.8523 45.4399L88.3604 45.9179L88.5802 46.4012L86.1864 45.6424L85.9829 45.1951L87.05 44.7032L85.5419 44.2252L85.3236 43.7452Z" fill="#072D6B"/>
<path d="M88.7572 46.7904L89.4433 48.2991L89.0021 48.1593L88.5388 47.1404L87.978 46.9627L88.3582 47.7987L87.9375 47.6653L87.5574 46.8294L86.5862 46.5215L86.3634 46.0317L88.7572 46.7904Z" fill="#072D6B"/>
<path d="M89.565 48.5667L89.7877 49.0565L87.394 48.2978L87.1712 47.808L89.565 48.5667Z" fill="#072D6B"/>
<path d="M90.387 50.3744C90.4613 50.5376 90.4939 50.6738 90.4869 50.7805C90.4798 50.8873 90.432 50.956 90.345 50.9899C90.2531 51.0194 90.1292 51.0109 89.9719 50.9611C89.818 50.9123 89.6649 50.833 89.5175 50.7276C89.3685 50.6189 89.2365 50.496 89.12 50.3557L88.4017 50.5136L88.1551 49.9716L88.785 49.8442L88.5964 49.4295L87.7928 49.1748L87.57 48.6849L89.9638 49.4437L90.387 50.3744ZM89.0239 49.565L89.2065 49.9666C89.2585 50.0809 89.3309 50.1821 89.4304 50.2724C89.5266 50.3616 89.6319 50.4257 89.7447 50.4614C89.8576 50.4972 89.9301 50.4895 89.9673 50.4426C90.0011 50.3946 89.9937 50.314 89.9418 50.1997L89.7591 49.798L89.0239 49.565Z" fill="#072D6B"/>
<path d="M90.9166 51.5389L91.2092 52.1822L89.7396 52.2586L91.7765 53.4296L92.0631 54.0599L89.6693 53.3011L89.4569 52.8341L91.0608 53.3425L89.1867 52.2398L89.0055 51.8414L90.339 51.7555L88.7352 51.2471L88.5228 50.7801L90.9166 51.5389Z" fill="#072D6B"/>
<path d="M92.2407 54.4504L92.9387 55.9852L92.4975 55.8454L92.0223 54.8004L91.4854 54.6303L91.8715 55.4793L91.4509 55.346L91.0648 54.4969L90.5108 54.3213L91.0024 55.4022L90.5612 55.2624L89.8469 53.6917L92.2407 54.4504Z" fill="#072D6B"/>
<path d="M93.0891 56.316L93.45 57.1095C93.5539 57.3381 93.5932 57.5211 93.5708 57.6649C93.5484 57.8087 93.4691 57.8982 93.3309 57.9354C93.1928 57.9727 93.0098 57.9566 92.7773 57.8829C92.5448 57.8092 92.3139 57.6941 92.0896 57.5419C91.8653 57.3898 91.6642 57.2115 91.4814 57.0026C91.2986 56.7937 91.1601 56.5794 91.0562 56.3508L90.6953 55.5573L93.0891 56.316ZM91.4836 56.4863C91.5772 56.692 91.7184 56.8737 91.9106 57.0324C92.1027 57.1912 92.3176 57.3096 92.5501 57.3833C92.7826 57.457 92.9406 57.4567 93.0288 57.3869C93.117 57.317 93.1161 57.1798 93.0225 56.974L92.8844 56.6703L91.3455 56.1826L91.4836 56.4863Z" fill="#072D6B"/>
<g clipPath="url(#clip1_2239_15601)">
<path d="M143.019 64.7761C143.639 66.0439 145.487 67.7157 147.286 68.6698L148.252 70.6006C146.592 69.9512 145.787 70.4174 146.435 71.7409C147.083 73.0645 149.018 74.852 150.881 75.8507L151.901 77.9164C150.186 77.2425 149.363 77.7468 150.058 79.1652C150.091 79.2331 150.126 79.3001 150.165 79.3738L105.87 58.5318C105.856 58.4747 105.839 58.418 105.82 58.3572C105.364 57.0005 103.476 55.1975 101.6 54.3178L101.037 52.572C102.9 53.4416 104.051 53.0855 103.619 51.7933C103.187 50.5011 101.369 48.804 99.5518 47.9584L99.0227 46.3126C100.824 47.1471 101.953 46.8275 101.543 45.6106C101.133 44.3936 99.3857 42.7722 97.6193 41.9647L97.0902 40.319C98.8379 41.1226 99.9362 40.8297 99.5554 39.681C99.532 39.6061 99.5038 39.5326 99.471 39.4612L139.651 57.8749C139.68 57.9546 139.713 58.0327 139.75 58.1088C140.335 59.3026 142.109 60.8893 143.85 61.8024L144.811 63.7266C143.202 63.097 142.404 63.5204 143.019 64.7761Z" fill="#CAE6FF"/>
<path d="M106.191 57.5321C105.876 57.1062 105.526 56.7059 105.146 56.335L106.191 57.5321Z" fill="#494949"/>
</g>
<path d="M121.655 45.8415L128.044 61.0988C128.385 61.913 127.749 62.1506 126.623 61.6221L108.086 52.9356L107.034 51.7397L106.182 49.2308C106.687 49.0308 106.868 48.5359 106.609 47.7837C106.572 47.6784 106.529 47.5752 106.48 47.4745C106.171 46.8045 105.593 46.0623 104.866 45.3544L104.022 42.8869C104.515 42.7039 104.696 42.2426 104.452 41.5326C104.417 41.4336 104.377 41.3364 104.331 41.2415C104.037 40.6087 103.487 39.9075 102.778 39.2365L101.985 36.8884C102.162 36.8353 102.313 36.7208 102.41 36.5658C102.507 36.4109 102.544 36.226 102.513 36.0449L119.26 43.7156C120.286 44.1857 121.361 45.1373 121.655 45.8415Z" fill="#1161FF"/>
<g clipPath="url(#clip2_2239_15601)">
<path d="M160.933 54.4696L140.123 56.1418L135.358 50.7672L160.933 54.4696Z" fill="#1EFF59"/>
<path d="M142.747 60.4967L137.998 61.6581L141.305 58.2378L142.747 60.4967Z" fill="#137E2F"/>
<path d="M160.933 54.4695L147.583 68.0692L142.748 60.4964L141.306 58.2375L160.933 54.4695Z" fill="#1EFF59"/>
<path d="M160.932 54.47L141.304 58.2379L137.997 61.6582L140.122 56.1422L160.932 54.47Z" fill="#04B332"/>
</g>
</g>
<defs>
<filter id="filter0_f_2239_15601" x="-269.999" y="-161.39" width="1117.07" height="354.933" filterUnits="userSpaceOnUse" color-interpolation-filters="sRGB">
<feFlood flood-opacity="0" result="BackgroundImageFix"/>
<feBlend mode="normal" in="SourceGraphic" in2="BackgroundImageFix" result="shape"/>
<feGaussianBlur stdDeviation="50" result="effect1_foregroundBlur_2239_15601"/>
</filter>
<linearGradient id="paint0_linear_2239_15601" x1="326" y1="30" x2="326" y2="42" gradientUnits="userSpaceOnUse">
<stop stop-color="#FFB84E"/>
<stop offset="1" stop-color="#F5D573"/>
</linearGradient>
<linearGradient id="paint1_linear_2239_15601" x1="473.167" y1="39" x2="473.167" y2="82.1368" gradientUnits="userSpaceOnUse">
<stop stop-color="#D9D9D9" stop-opacity="0.07"/>
<stop offset="0.0001" stop-color="white" stop-opacity="0"/>
<stop offset="1" stop-color="white" stop-opacity="0.43"/>
</linearGradient>
<clipPath id="clip0_2239_15601">
<rect width="583" height="143" rx="5" fill="white"/>
</clipPath>
<clipPath id="clip1_2239_15601">
<rect width="64.6554" height="19.0163" fill="white" transform="translate(97.6934 38.7725) rotate(21.0655)"/>
</clipPath>
<clipPath id="clip2_2239_15601">
<rect width="25.1966" height="17.4894" fill="white" transform="translate(137.42 45.4131) rotate(21.0655)"/>
</clipPath>
</defs>
</svg>
