<svg width="86" height="26" viewBox="0 0 86 26" fill="none" xmlns="http://www.w3.org/2000/svg">
<path d="M5.2789 13.6035V14.4678C5.2789 14.6212 5.36144 14.7593 5.49254 14.8258L11.6444 17.925C11.9066 18.058 12.0717 18.3342 12.0717 18.641V20.027C12.0717 20.3185 11.7803 20.5128 11.5327 20.385L5.813 17.5057C5.56537 17.3778 5.27404 17.5721 5.27404 17.8637V18.7996C5.27404 18.953 5.35659 19.0911 5.48768 19.1576L11.6395 22.2568C11.9017 22.3898 12.0668 22.6659 12.0668 22.9728V24.502C12.0668 24.7935 11.7755 24.9878 11.5278 24.86L5.26919 21.7096L1.96264 20.0423L1.82668 19.9707C1.69559 19.8991 1.56935 19.8122 1.45767 19.7099C1.02068 19.3263 0.734211 18.7586 0.705078 18.1194V8.67843C0.739066 8.00846 1.09351 7.42544 1.61305 7.10324L1.88495 6.96515C1.92865 6.94981 1.96749 6.91913 2.01605 6.89355C1.79755 7.10324 1.6616 7.43567 1.6616 7.76809C1.6616 8.11586 1.7927 8.45341 2.05003 8.63752C2.20541 8.75003 2.35107 8.8114 2.52587 8.87789L4.19128 9.71663L5.2789 10.2639L11.6492 13.4705C11.9114 13.6035 12.0765 13.8796 12.0765 14.1865V15.7719C12.0765 16.0634 11.7852 16.2578 11.5376 16.1299L5.81785 13.2506C5.56537 13.1176 5.2789 13.312 5.2789 13.6035Z" fill="#072D6B"/>
<path d="M2.1083 20.1093C1.98691 20.0786 1.73443 19.9508 1.62276 19.8638C1.55478 19.8127 1.48195 19.7616 1.41397 19.7002C1.06924 19.3984 0.816753 18.9842 0.705078 18.5086V8.60735C0.758488 7.94761 1.1275 7.38504 1.64703 7.07818L1.87524 6.96567L1.99177 6.9043C1.95778 6.92475 1.92379 6.94521 1.8898 6.96055L1.6179 7.09864C1.09837 7.42084 0.743922 8.00386 0.709934 8.67383V18.1148C0.739066 18.754 1.02554 19.3217 1.46253 19.7053C1.5742 19.8076 1.70044 19.8945 1.83154 19.9661L1.96749 20.0377L2.1083 20.1093Z" fill="#072D6B"/>
<path d="M2.01796 6.88867C2.01301 6.89384 2.01796 6.88867 2.01796 6.88867L1.98828 6.90417C1.99817 6.89901 2.00807 6.89384 2.01796 6.88867Z" fill="#3A7AF8"/>
<path d="M16.66 0.823397V10.8627C16.66 10.8832 16.66 10.9036 16.6552 10.919C16.6212 11.1542 16.495 11.3639 16.3202 11.4969C16.3007 11.5122 16.2862 11.5224 16.2667 11.5327L16.0677 11.635L4.81763 17.3425L2.48217 18.5188C2.38991 18.5648 2.30737 18.6006 2.21997 18.6517C1.98206 18.7949 1.85096 19.0916 1.85096 19.4035C1.85096 19.7053 1.99177 19.9763 2.20541 20.1451C2.17142 20.1349 2.14229 20.1246 2.1083 20.1144C1.98691 20.0837 1.73443 19.9559 1.62276 19.8689C1.55478 19.8178 1.48195 19.7666 1.41397 19.7053C1.06924 19.4035 0.816753 18.9893 0.705078 18.5136V8.60731C0.758488 7.94757 1.1275 7.385 1.64703 7.07814L1.87524 6.96563L15.3248 0.148314L15.519 0.0511426C15.5384 0.0409141 15.5579 0.0357998 15.5773 0.0306855C15.6064 0.020457 15.6404 0.015343 15.6695 0.0102288C15.7132 0.0051145 15.7569 0 15.8006 0C16.2328 0 16.5921 0.332427 16.6552 0.772254C16.66 0.787597 16.66 0.802939 16.66 0.823397Z" fill="#3A7AF8"/>
<path d="M14.4356 25.919L12.9644 25.3514C12.8139 25.2951 12.7168 25.1468 12.7168 24.9781V23.4797C12.7168 23.2036 12.979 23.0093 13.2266 23.1064L14.6978 23.6741C14.8483 23.7303 14.9454 23.8786 14.9454 24.0474V25.5457C14.9406 25.8219 14.6784 26.0111 14.4356 25.919Z" fill="#1EFF59"/>
<path opacity="0.6" d="M16.0634 11.6351L16.2625 11.5328C16.2819 11.5226 16.3013 11.5124 16.3159 11.497C16.4907 11.3589 16.6169 11.1544 16.6509 10.9191C16.6557 10.8987 16.6557 10.8833 16.6557 10.8629V0.823553C16.6557 0.803095 16.6557 0.787753 16.6509 0.767296C16.6509 0.762181 16.6509 0.757067 16.6509 0.751953L4.40063 6.96578L4.17242 7.0783C3.65289 7.38515 3.28873 7.95284 3.23047 8.60746V18.1353L4.81334 17.3375L16.0634 11.6351Z" fill="#2C5CBA"/>
<path opacity="0.4" d="M16.179 11.4663L16.3392 11.3844C16.3538 11.3742 16.3683 11.3691 16.3829 11.3589C16.5237 11.2464 16.6257 11.0827 16.6548 10.8935C16.6548 10.8781 16.6597 10.8628 16.6597 10.8475V2.75157C16.6597 2.73623 16.6597 2.72088 16.6548 2.70554C16.6548 2.70043 16.6548 2.70043 16.6548 2.69531L6.77399 7.70218L6.58948 7.79423C6.17191 8.04483 5.87573 8.5 5.83203 9.02677V16.7084L7.10901 16.064L16.179 11.4663Z" fill="#2C5CBA"/>
<path opacity="0.3" d="M16.281 11.4457L16.4073 11.3843C16.4218 11.3792 16.4315 11.3689 16.4412 11.3638C16.5529 11.2769 16.6306 11.149 16.6549 11.0007C16.6549 10.9905 16.6597 10.9751 16.6597 10.9649V4.64368C16.6597 4.63346 16.6597 4.61811 16.6549 4.60788C16.6549 4.60277 16.6549 4.60277 16.6549 4.59766L8.84249 8.50495L8.69683 8.57655C8.36666 8.7709 8.1336 9.12378 8.09961 9.53804V15.532L9.10954 15.0308L16.281 11.4457Z" fill="#2C5CBA"/>
<path d="M39.4078 8.94895C40.139 9.68012 40.5046 10.7961 40.5046 12.3354V17.8H38.9268V12.4316C38.9268 11.4311 38.6959 10.6614 38.2341 10.1227C37.7723 9.58391 37.1181 9.31453 36.2714 9.31453C35.3479 9.31453 34.6167 9.64164 34.0972 10.2766C33.5584 10.9308 33.3083 11.7967 33.3083 12.8934V17.8H31.7305V7.98687H33.0966L33.3083 9.31453C34.0394 8.35246 35.117 7.87143 36.5408 7.87143C37.7338 7.87143 38.6766 8.23701 39.4078 8.94895Z" fill="black"/>
<path d="M42.3609 9.42998H40.5907V7.98687H42.3609V5.23535H43.9387V7.98687H46.4208V9.42998H43.9387V15.2216C43.9387 15.645 44.0157 15.9336 44.1696 16.1068C44.3235 16.2799 44.6122 16.3569 45.0162 16.3569H46.7287V17.8H44.92C43.9964 17.8 43.323 17.6076 42.9382 17.1843C42.5533 16.7802 42.3609 16.126 42.3609 15.2409V9.42998Z" fill="black"/>
<path d="M52.4499 7.98687V9.52619H51.661C50.7181 9.52619 50.0447 9.85329 49.6406 10.469C49.2366 11.104 49.0441 11.8736 49.0441 12.7972V17.8H47.4664V7.98687H48.8325L49.0441 9.46846C49.3135 9.02591 49.6791 8.66032 50.1409 8.39094C50.5835 8.12156 51.1992 7.98687 52.0073 7.98687H52.4499Z" fill="black"/>
<path d="M54.7191 7.98687L57.74 15.9913L60.6647 7.98687H62.3387L57.817 19.4548C57.5861 20.0512 57.3745 20.4938 57.2013 20.7824C57.0089 21.0903 56.7972 21.3019 56.5278 21.4366C56.2585 21.5906 55.8929 21.6483 55.4503 21.6483H53.5647V20.2052H54.9693C55.2771 20.2052 55.508 20.1859 55.662 20.109C55.8159 20.0512 55.9314 19.955 56.0276 19.8011C56.1238 19.6472 56.2392 19.397 56.3932 19.0507L56.8934 17.877L53.0451 7.98687H54.7191Z" fill="black"/>
<path d="M22.4308 10.257C22.8156 9.50661 23.3736 8.92937 24.0855 8.50606C24.7782 8.08275 25.5863 7.87109 26.5099 7.87109C27.395 7.87109 28.2032 8.06351 28.8959 8.42909C29.5886 8.81392 30.1273 9.35268 30.5314 10.0454C30.9162 10.7573 31.1279 11.5847 31.1664 12.5275C31.1664 12.6814 31.1471 12.8931 31.1279 13.201H23.5083V13.3357C23.5275 14.2977 23.8161 15.0674 24.3934 15.6446C24.9514 16.2219 25.6826 16.5105 26.6061 16.5105C27.2988 16.5105 27.8953 16.3373 28.3956 15.991C28.8959 15.6446 29.223 15.1443 29.3961 14.5094H30.9932C30.8008 15.5099 30.3197 16.3373 29.5501 16.9723C28.7804 17.6072 27.8376 17.9151 26.7216 17.9151C25.7403 17.9151 24.8937 17.7227 24.1625 17.2994C23.4313 16.8761 22.8541 16.2988 22.45 15.5292C22.0459 14.7595 21.8535 13.8937 21.8535 12.8931C21.8535 11.8925 22.0459 11.0267 22.4308 10.257ZM29.5308 11.8925C29.4539 11.0652 29.1268 10.411 28.588 9.94917C28.0493 9.48737 27.3566 9.25648 26.5292 9.25648C25.7788 9.25648 25.1246 9.50661 24.5666 9.98765C23.9893 10.4879 23.6814 11.1229 23.6045 11.8925H29.5308Z" fill="black"/>
<path d="M70.5023 8.46796C71.2142 8.87203 71.7722 9.44927 72.1763 10.1997C72.5803 10.9693 72.792 11.8544 72.792 12.8935C72.792 13.894 72.5803 14.7599 72.1763 15.5103C71.7722 16.28 71.2142 16.8572 70.5023 17.2805C69.7711 17.7038 68.963 17.9155 68.0779 17.9155C67.2697 17.9155 66.5963 17.7808 66.0383 17.4922C65.461 17.2036 65.0185 16.7995 64.7106 16.2992V21.6483H63.1328V7.98692H64.499L64.7106 9.56472C65.5187 8.44872 66.654 7.87147 68.0779 7.87147C68.9822 7.87147 69.7903 8.08313 70.5023 8.46796ZM70.2714 15.5103C70.8679 14.8369 71.1757 13.971 71.1757 12.8935C71.1757 11.8352 70.8679 10.9693 70.2714 10.2959C69.6749 9.62244 68.886 9.2761 67.9239 9.2761C67.289 9.2761 66.731 9.43003 66.2307 9.73789C65.7304 10.0458 65.3648 10.4691 65.0954 11.0078C64.8261 11.5466 64.6914 12.1623 64.6914 12.855C64.6914 13.5669 64.8261 14.2019 65.0954 14.7599C65.3648 15.3179 65.7304 15.7412 66.2307 16.0491C66.731 16.3569 67.289 16.5109 67.9239 16.5109C68.886 16.5109 69.6749 16.1838 70.2714 15.5103Z" fill="#072D6B"/>
<path d="M83.3883 16.3569V17.8H82.5224C81.8875 17.8 81.4449 17.6846 81.1755 17.4152C80.9062 17.1651 80.7522 16.7802 80.7522 16.28C79.9826 17.3767 78.8858 17.9155 77.462 17.9155C76.3652 17.9155 75.4801 17.6654 74.8259 17.1458C74.1717 16.6456 73.8446 15.9336 73.8446 15.0485C73.8446 14.0672 74.1717 13.3168 74.8451 12.778C75.5186 12.2585 76.4999 11.9891 77.7891 11.9891H80.6753V11.3157C80.6753 10.6807 80.4444 10.1804 80.0211 9.81486C79.5977 9.46851 79.0013 9.2761 78.2316 9.2761C77.5389 9.2761 76.9809 9.43003 76.5384 9.73789C76.0958 10.0458 75.8264 10.4306 75.7302 10.9309H74.1524C74.2679 9.96879 74.6912 9.21837 75.4224 8.67961C76.1535 8.14085 77.1156 7.87147 78.3086 7.87147C79.5593 7.87147 80.5213 8.17934 81.214 8.79506C81.9067 9.41079 82.2531 10.2767 82.2531 11.4119V15.645C82.2531 16.126 82.4647 16.3569 82.9073 16.3569H83.3883ZM80.6753 13.3168H77.6351C76.1728 13.3168 75.4416 13.8748 75.4416 14.9523C75.4416 15.4526 75.634 15.8374 76.0188 16.126C76.4037 16.4339 76.9232 16.5686 77.5774 16.5686C78.5395 16.5686 79.2899 16.3185 79.8479 15.8182C80.3866 15.3179 80.6753 14.6445 80.6753 13.7978V13.3168Z" fill="#072D6B"/>
<path d="M84.2164 4.33105H85.7942V17.8H84.2164V4.33105Z" fill="#072D6B"/>
</svg>
