<svg width="18" height="18" viewBox="0 0 18 18" fill="none" xmlns="http://www.w3.org/2000/svg">
<path d="M13.7083 3.06738C14.0841 3.06738 14.4444 3.21664 14.7101 3.48231C14.9757 3.74799 15.125 4.10833 15.125 4.48405V14.4007C15.125 14.7764 14.9757 15.1368 14.7101 15.4025C14.4444 15.6681 14.0841 15.8174 13.7083 15.8174H3.79167C3.41594 15.8174 3.05561 15.6681 2.78993 15.4025C2.52426 15.1368 2.375 14.7764 2.375 14.4007V4.48405C2.375 4.10833 2.52426 3.74799 2.78993 3.48231C3.05561 3.21664 3.41594 3.06738 3.79167 3.06738H13.7083ZM13.3542 14.0465V10.2924C13.3542 9.67995 13.1109 9.09261 12.6778 8.65955C12.2448 8.2265 11.6574 7.98322 11.045 7.98322C10.4429 7.98322 9.74167 8.35155 9.40167 8.90405V8.1178H7.42542V14.0465H9.40167V10.5545C9.40167 10.009 9.84083 9.5628 10.3863 9.5628C10.6493 9.5628 10.9015 9.66728 11.0875 9.85325C11.2734 10.0392 11.3779 10.2915 11.3779 10.5545V14.0465H13.3542ZM5.12333 7.00572C5.43894 7.00572 5.74162 6.88034 5.96479 6.65717C6.18796 6.43401 6.31333 6.13132 6.31333 5.81572C6.31333 5.15697 5.78208 4.61863 5.12333 4.61863C4.80585 4.61863 4.50136 4.74475 4.27687 4.96925C4.05237 5.19375 3.92625 5.49823 3.92625 5.81572C3.92625 6.47447 4.46458 7.00572 5.12333 7.00572ZM6.10792 14.0465V8.1178H4.14583V14.0465H6.10792Z" fill="#2C418E"/>
</svg>
