<svg width="18" height="18" viewBox="0 0 18 18" fill="none" xmlns="http://www.w3.org/2000/svg">
<path d="M8.74935 2.35938C7.81915 2.35937 6.89806 2.54259 6.03867 2.89856C5.17929 3.25453 4.39842 3.77629 3.74068 4.43404C2.41229 5.76242 1.66602 7.56409 1.66602 9.44271C1.66602 12.5735 3.69893 15.2298 6.51102 16.1719C6.86518 16.2285 6.97852 16.009 6.97852 15.8177V14.6206C5.01643 15.0456 4.59852 13.6715 4.59852 13.6715C4.27268 12.8498 3.81227 12.6302 3.81227 12.6302C3.16768 12.191 3.86185 12.2052 3.86185 12.2052C4.57018 12.2548 4.9456 12.9348 4.9456 12.9348C5.56185 14.0115 6.6031 13.6927 7.00685 13.5227C7.0706 13.0623 7.25477 12.7506 7.4531 12.5735C5.8806 12.3965 4.23018 11.7873 4.23018 9.08854C4.23018 8.30229 4.49935 7.67188 4.95977 7.16896C4.88893 6.99188 4.64102 6.25521 5.0306 5.29896C5.0306 5.29896 5.6256 5.10771 6.97852 6.02146C7.5381 5.86563 8.14727 5.78771 8.74935 5.78771C9.35143 5.78771 9.9606 5.86563 10.5202 6.02146C11.8731 5.10771 12.4681 5.29896 12.4681 5.29896C12.8577 6.25521 12.6098 6.99188 12.5389 7.16896C12.9993 7.67188 13.2685 8.30229 13.2685 9.08854C13.2685 11.7944 11.611 12.3894 10.0314 12.5665C10.2864 12.786 10.5202 13.2181 10.5202 13.8769V15.8177C10.5202 16.009 10.6335 16.2356 10.9948 16.1719C13.8068 15.2227 15.8327 12.5735 15.8327 9.44271C15.8327 8.51251 15.6495 7.59142 15.2935 6.73203C14.9375 5.87264 14.4158 5.09178 13.758 4.43404C13.1003 3.77629 12.3194 3.25453 11.46 2.89856C10.6006 2.54259 9.67955 2.35938 8.74935 2.35938Z" fill="#2C418E"/>
</svg>
