<svg width="18" height="18" viewBox="0 0 18 18" fill="none" xmlns="http://www.w3.org/2000/svg">
<path d="M8.7513 7.31771C8.18772 7.31771 7.64722 7.54159 7.2487 7.94011C6.85019 8.33862 6.6263 8.87912 6.6263 9.44271C6.6263 10.0063 6.85019 10.5468 7.2487 10.9453C7.64722 11.3438 8.18772 11.5677 8.7513 11.5677C9.31489 11.5677 9.85539 11.3438 10.2539 10.9453C10.6524 10.5468 10.8763 10.0063 10.8763 9.44271C10.8763 8.87912 10.6524 8.33862 10.2539 7.94011C9.85539 7.54159 9.31489 7.31771 8.7513 7.31771ZM8.7513 5.90104C9.69061 5.90104 10.5914 6.27418 11.2556 6.93837C11.9198 7.60256 12.293 8.5034 12.293 9.44271C12.293 10.382 11.9198 11.2829 11.2556 11.947C10.5914 12.6112 9.69061 12.9844 8.7513 12.9844C7.81199 12.9844 6.91116 12.6112 6.24697 11.947C5.58277 11.2829 5.20964 10.382 5.20964 9.44271C5.20964 8.5034 5.58277 7.60256 6.24697 6.93837C6.91116 6.27418 7.81199 5.90104 8.7513 5.90104ZM13.3555 5.72396C13.3555 5.95879 13.2622 6.18399 13.0961 6.35004C12.9301 6.51609 12.7049 6.60938 12.4701 6.60938C12.2352 6.60938 12.01 6.51609 11.844 6.35004C11.6779 6.18399 11.5846 5.95879 11.5846 5.72396C11.5846 5.48913 11.6779 5.26392 11.844 5.09787C12.01 4.93183 12.2352 4.83854 12.4701 4.83854C12.7049 4.83854 12.9301 4.93183 13.0961 5.09787C13.2622 5.26392 13.3555 5.48913 13.3555 5.72396ZM8.7513 3.77604C6.99889 3.77604 6.71272 3.781 5.89743 3.81713C5.34209 3.84333 4.96951 3.91771 4.62384 4.05229C4.33457 4.1585 4.07305 4.32873 3.85884 4.55025C3.63714 4.76445 3.46668 5.02596 3.36018 5.31525C3.22559 5.66233 3.15122 6.03421 3.12572 6.58883C3.08889 7.37083 3.08393 7.64425 3.08393 9.44271C3.08393 11.1958 3.08889 11.4813 3.12501 12.2966C3.15122 12.8512 3.22559 13.2245 3.35947 13.5695C3.47989 13.8776 3.62155 14.0993 3.85672 14.3345C4.09543 14.5725 4.31714 14.7148 4.62172 14.8324C4.97164 14.9677 5.34422 15.0428 5.89672 15.0683C6.67872 15.1051 6.95214 15.1094 8.75059 15.1094C10.5037 15.1094 10.7892 15.1044 11.6045 15.0683C12.1584 15.0421 12.531 14.9677 12.8773 14.8338C13.1664 14.7271 13.4278 14.5569 13.6423 14.3359C13.8811 14.0979 14.0234 13.8762 14.141 13.5709C14.2756 13.2224 14.3507 12.8498 14.3762 12.2959C14.413 11.5146 14.4173 11.2405 14.4173 9.44271C14.4173 7.69029 14.4123 7.40413 14.3762 6.58883C14.35 6.03492 14.2749 5.66092 14.141 5.31525C14.0342 5.02626 13.8641 4.76486 13.6431 4.55025C13.4289 4.32843 13.1674 4.15795 12.8781 4.05158C12.531 3.917 12.1584 3.84263 11.6045 3.81713C10.8232 3.78029 10.5505 3.77604 8.7513 3.77604ZM8.7513 2.35938C10.6758 2.35938 10.916 2.36646 11.6718 2.40187C12.4254 2.43729 12.9397 2.55558 13.3909 2.73125C13.8584 2.91117 14.2522 3.15483 14.6461 3.54796C15.0062 3.90205 15.2849 4.33038 15.4628 4.80312C15.6377 5.25433 15.7567 5.76858 15.7921 6.52296C15.8254 7.27804 15.8346 7.51817 15.8346 9.44271C15.8346 11.3673 15.8276 11.6074 15.7921 12.3625C15.7567 13.1168 15.6377 13.6304 15.4628 14.0823C15.2854 14.5553 15.0067 14.9837 14.6461 15.3375C14.2919 15.6975 13.8636 15.9762 13.3909 16.1542C12.9397 16.3291 12.4254 16.4481 11.6718 16.4835C10.916 16.5168 10.6758 16.526 8.7513 16.526C6.82676 16.526 6.58664 16.519 5.83084 16.4835C5.07718 16.4481 4.56364 16.3291 4.11172 16.1542C3.63878 15.9767 3.21038 15.698 2.85655 15.3375C2.49632 14.9834 2.21761 14.5551 2.03984 14.0823C1.86418 13.6311 1.74589 13.1168 1.71047 12.3625C1.67647 11.6074 1.66797 11.3673 1.66797 9.44271C1.66797 7.51817 1.67505 7.27804 1.71047 6.52296C1.74589 5.76787 1.86418 5.25504 2.03984 4.80312C2.21709 4.33009 2.49587 3.90164 2.85655 3.54796C3.21049 3.18758 3.63886 2.90885 4.11172 2.73125C4.56293 2.55558 5.07647 2.43729 5.83084 2.40187C6.58664 2.36858 6.82676 2.35938 8.7513 2.35938Z" fill="#2C418E"/>
</svg>
