<svg width="18" height="18" viewBox="0 0 18 18" fill="none" xmlns="http://www.w3.org/2000/svg">
<path d="M15.9836 4.9483C15.443 5.18743 14.8698 5.34452 14.2829 5.41438C14.9013 5.04402 15.364 4.46149 15.5848 3.7753C15.004 4.12096 14.3672 4.36321 13.7042 4.49426C13.2584 4.01725 12.6674 3.7009 12.0233 3.59438C11.3791 3.48786 10.7178 3.59715 10.1422 3.90524C9.56651 4.21334 9.10878 4.70299 8.84013 5.29807C8.57148 5.89314 8.50695 6.56031 8.65659 7.19584C7.47859 7.1369 6.32615 6.83085 5.27411 6.29758C4.22208 5.7643 3.29397 5.01571 2.55005 4.10042C2.28675 4.55266 2.14839 5.06675 2.14913 5.59005C2.14913 6.61713 2.67259 7.52451 3.46663 8.05576C2.99631 8.04092 2.53634 7.91391 2.12505 7.6853V7.72142C2.12503 8.40558 2.36165 9.06869 2.7948 9.59827C3.22794 10.1279 3.83094 10.4913 4.5015 10.627C4.06492 10.7454 3.60709 10.7629 3.16276 10.678C3.35183 11.2669 3.72036 11.7819 4.21675 12.1509C4.71314 12.5199 5.31252 12.7244 5.93092 12.7357C5.31634 13.2184 4.61263 13.5752 3.86004 13.7857C3.10746 13.9962 2.32075 14.0563 1.54492 13.9625C2.89906 14.8334 4.47537 15.2957 6.08534 15.2942C11.5353 15.2942 14.5145 10.78 14.5145 6.86505C14.5145 6.73755 14.5117 6.60863 14.506 6.48184C15.0857 6.06276 15.5861 5.54299 15.9836 4.9483Z" fill="#2C418E"/>
</svg>
